<?xml version="1.0" encoding="UTF-8"?>
<svg enable-background="new 0 0 720 718" version="1.1" viewBox="0 0 720 718" xmlns="http://www.w3.org/2000/svg">
<path d="m231.84 688.06c0.045013-22.461 0.099334-44.923 0.11136-67.384 7.18e-4 -1.314-0.34038-2.6282-0.64407-4.7568-0.20554-3.8494-0.28941-6.8841-0.37329-9.9188 0.12756-0.74579 0.25511-1.4915 0.44681-2.8727 0.048996-1.4688 0.033844-2.3022 0.018707-3.1357 1.6475-3.8445-0.64397-4.1588-3.5865-4.1524-17.315 0.037537-34.63 0.014588-51.944 0.01947-11.654 0.003296-23.308 0.018738-35.505-0.13654-0.83595-0.34314-1.1295-0.52094-1.423-0.69867 0.067749-29.469 0.083176-58.939 0.2648-88.407 0.024673-4.0044-2.3502-3.601-4.8965-3.5993-28.809 0.019378-57.617 0.021667-86.946-0.17355-0.78448-0.42175-1.049-0.64142-1.3136-0.86105 0.08582-1.4904 0.2466-2.9807 0.24676-4.4711 0.009335-90.455 0.005486-180.91 0.33427-271.99 2.1442-0.74617 3.9569-0.96739 5.7698-0.96887 27.117-0.022156 54.234 0.011749 81.351-0.081284 1.6591-0.005692 3.3149-0.96146 4.9722-1.4752 0.14076-1.8091 0.40238-3.6181 0.40416-5.4273 0.026352-26.662 0.018173-53.325 0.018173-79.987 0-1.7825-1.5e-5 -3.565-1.5e-5 -5.9664 29.786 0 58.902 0 88.835-0.096832 1.6816-2.5732 2.5462-5.0496 3.4109-7.526 0.19545-1.7909 0.55843-3.5815 0.56111-5.3726 0.037292-24.97 0.086578-49.941-0.043946-74.911-0.018554-3.5467 0.72673-4.9388 4.6434-4.9334 90.892 0.12544 181.78 0.12271 273.21 0.62743 0.59021 27.731 0.63727 54.979 0.72769 82.226 0.00708 2.1279 0.31692 4.2548 0.48602 6.3822-1.0779 4.2786 1.9731 3.6709 4.4098 3.6731 18.465 0.017105 36.93 0.009598 55.395 0.00972 8.8167 6.1e-5 17.655 0.37399 26.442-0.1387 5.3652-0.31303 6.2313 1.6223 6.1967 6.4578-0.20099 28.111-0.065796 56.225 0.19183 85.122 1.8403 0.98998 3.444 1.3692 5.0488 1.3745 14.32 0.046569 28.639-0.00882 42.959 0.037124 14.814 0.047531 29.627 0.17458 44.44 0.26683 0.029968 47.294 0.070618 94.589 0.08667 141.88 0.014831 43.631-0.064941 87.263 0.10638 130.89 0.017517 4.4616-1.2242 5.5681-5.5985 5.5356-27.143-0.20136-54.289-0.10129-81.433-0.10126h-5.8976c0 2.3978 2.44e-4 4.1901 0 5.9824-0.00409 27.311-0.095337 54.623 0.082458 81.933 0.026367 4.0568-1.2258 5.0142-5.0937 4.9967-28.476-0.1283-56.953-0.040894-86.258-0.10132-1.0738-2.1777-1.5318-4.2755-1.5324-6.3734-0.034302-119.47-0.030548-238.94-0.030518-358.41 0-2.0803 3.1e-5 -4.1606 3.1e-5 -6.5263-11.338 0-21.826-0.15006-32.302 0.15628-1.6353 0.047806-4.0652 1.8345-4.6835 3.3908-8.5668 21.565-16.817 43.255-25.277 64.863-7.0099 17.903-14.252 35.715-21.281 53.611-4.1286 10.51-6.8705 21.47-4.583 32.681 1.8447 9.0412 4.7592 17.953 8.0636 26.591 10.483 27.404 21.402 54.641 32.095 81.965 13.108 33.497 26.224 66.992 39.151 100.56 1.667 4.3286 2.5422 8.7617 8.5144 7.7532 0.26633 5.0256 0.50238 9.4797 0.73843 13.934-0.096192 1.3877-0.19238 2.7753-0.31021 4.9267-0.063538 23.207-0.087738 45.65-0.17832 68.093-0.007873 1.9537-0.45312 3.9057-0.69519 5.8585-0.82507-0.070801-1.6501-0.20361-2.4752-0.20355-91.111 0.003234-182.22 0.016479-273.9-0.10193-0.88763-0.26837-1.2059-0.40558-1.5241-0.54285m40.032-186c4.5101-10.781 9.1692-21.502 13.499-32.355 8.844-22.168 17.702-44.334 26.146-66.655 2.9339-7.7552 6.5435-15.595 4.9465-25.149 0.034759-1.304 0.069488-2.6081 0.62888-4.3004-0.16782-1.192-0.33566-2.3841-0.51633-4.3947-0.045257-1.6317-0.090545-3.2634 0.26193-5.7612-0.15851-2.8206 0.28851-5.8442-0.57745-8.4277-4.4062-13.145-8.8743-26.283-13.847-39.221-6.812-17.724-14.181-35.234-21.158-52.896-7.8272-19.815-15.439-39.714-23.228-59.544-6.394-16.279-12.897-32.515-19.379-48.759-2.1134-5.2957-4.3152-10.556-6.4766-15.833-0.29407 0.082947-0.58815 0.16588-0.88223 0.24882v16.181c0 113.48 0 226.96 1.6e-5 340.44 0 1.1665 0.10223 2.3436-0.01854 3.4974-0.36385 3.4763 1.1221 4.6977 4.6014 4.6433 10.329-0.16147 20.663-8.85e-4 30.993-0.12808 1.4341-0.017639 2.8571-0.9473 4.2206-1.5574 0 0 0.1026 0.064606 0.78592-0.028351m108.25-272.4c12.028-32.392 24.057-64.783 36.251-97.622h-92.392c0.28348 1.0284 0.40768 1.6339 0.61523 2.2094 7.8777 21.842 15.664 43.717 23.69 65.505 3.894 10.572 8.1546 21.011 12.416 31.443 1.8044 4.4166 4.7919 7.7058 10.126 7.3883 5.1753-0.30811 7.2199-4.1417 9.2939-8.9232m-36.515 323.32c-5.0266 13.949-10.053 27.897-15.322 42.518h82.363c-0.38132-1.697-0.54346-2.9927-0.96283-4.1989-6.5337-18.792-12.963-37.622-19.719-56.335-3.2594-9.0276-6.5905-18.11-10.908-26.652-4.3023-8.5115-13.723-8.0279-18.304 0.35996-0.71277 1.3049-1.3475 2.6663-1.877 4.0554-5.0178 13.166-10.005 26.344-15.27 40.253z" fill="#fcfcfc" data-index="1"/>
<path d="m695.92 224.44c-14.682 0.28241-29.495 0.15536-44.309 0.10783-14.32-0.045944-28.639 0.009445-42.959-0.037124-1.6048-0.005219-3.2085-0.38448-4.8592-1.0045 29.43-0.44446 58.906-0.48727 88.382-0.45972 1.205 0.001129 2.4093 0.6642 3.7451 1.3936z" fill="#041c04" stroke="#041c04" visibility="hidden" data-index="3"/>
<path d="m510.15 688.86c-0.17224-1.9042 0.27301-3.8562 0.28088-5.8099 0.090577-22.443 0.11478-44.886 0.33057-67.7 0.52881 1.1813 1.1878 2.7321 1.1927 4.2849 0.06778 21.445 0.076508 42.89-0.016418 64.335-0.006989 1.6157-0.89493 3.2275-1.7878 4.8898z" fill="#041c04" stroke="#041c04" visibility="hidden" data-index="5"/>
<path d="m231.09 124.12c-0.56828 2.3514-1.4329 4.8277-2.6914 7.2164 0.53581-2.4223 1.4654-4.7568 2.6914-7.2164z" fill="#041c04" stroke="#041c04" visibility="hidden" data-index="7"/>
<path d="m231.12 600.09c0.28868 0.73047 0.30383 1.564 0.14204 2.6664-0.25647-0.67511-0.33603-1.6193-0.14204-2.6664z" fill="#041c04" stroke="#041c04" data-index="8"/>
<path d="m138.73 595.18c0.49776 0.019165 0.79128 0.19696 1.1642 0.6275-0.39508 0.39966-0.86957 0.54645-1.3441 0.6933-0.008118-0.38739-0.016235-0.77484 0.17987-1.3208z" fill="#041c04" stroke="#041c04" data-index="9"/>
<path d="m45.83 502.13c0.48128 0.07425 0.74585 0.29392 1.0615 0.77512-0.43178 0.353-0.9146 0.44449-1.3974 0.53598 0.039745-0.38858 0.07949-0.77713 0.33596-1.3111z" fill="#041c04" stroke="#041c04" data-index="10"/>
<path d="m231.65 688.23c0.50858-0.036133 0.8268 0.10107 1.2579 0.47931-0.3513 0.44153-0.81552 0.64209-1.2797 0.84259-0.056183-0.38281-0.11237-0.76562 0.02182-1.3219z" fill="#041c04" stroke="#041c04" data-index="11"/>
<path d="m379.92 229.97c-1.8791 4.4632-3.9236 8.2968-9.0989 8.6049-5.3339 0.31754-8.3214-2.9717-10.126-7.3883-4.2616-10.431-8.5221-20.871-12.416-31.443-8.0255-21.787-15.812-43.663-23.69-65.505-0.20755-0.57546-0.33176-1.1809-0.61523-2.2094h92.392c-12.194 32.838-24.222 65.23-36.446 97.94z" fill="#4894c0" stroke="#4894c0" stroke-width="2px" visibility="hidden" data-index="13"/>
<path d="m316.83 373.79c-0.40878-0.98642-0.55524-2.167-0.47147-3.5589 0.39813 0.98068 0.56598 2.1727 0.47147 3.5589z" fill="#4894c0" stroke="#4894c0" data-index="15"/>
</svg>
